version 1
nodes
0 "root" -1
end
skeleton
time 0
0 0 0 0 0 0 0
end
triangles
phys
0 -14.000000 -11.000000 7.000000 -0.390567 -0.911322 0.130189 0 0
0 -13.000000 -11.000000 10.000000 -0.390567 -0.911322 0.130189 0 0
0 -14.000000 -10.000000 14.000000 -0.390567 -0.911322 0.130189 0 0
phys
0 14.000000 11.000000 10.000000 0.388514 0.874157 0.291386 0 0
0 11.000000 12.000000 11.000000 0.388514 0.874157 0.291386 0 0
0 14.000000 10.000000 13.000000 0.388514 0.874157 0.291386 0 0
phys
0 -10.000000 12.000000 8.000000 -0.262111 0.961074 0.087370 0 0
0 -13.000000 11.000000 10.000000 -0.262111 0.961074 0.087370 0 0
0 -9.000000 12.000000 11.000000 -0.262111 0.961074 0.087370 0 0
phys
0 -8.000000 10.000000 15.000000 -0.154303 0.617213 0.771517 0 0
0 -12.000000 9.000000 15.000000 -0.154303 0.617213 0.771517 0 0
0 -3.000000 10.000000 16.000000 -0.154303 0.617213 0.771517 0 0
phys
0 -9.000000 12.000000 11.000000 -0.301511 0.904534 0.301511 0 0
0 -13.000000 11.000000 10.000000 -0.301511 0.904534 0.301511 0 0
0 -13.000000 10.000000 13.000000 -0.301511 0.904534 0.301511 0 0
phys
0 -13.000000 10.000000 13.000000 -0.666667 0.666667 0.333333 0 0
0 -14.000000 10.000000 11.000000 -0.666667 0.666667 0.333333 0 0
0 -14.000000 9.000000 13.000000 -0.666667 0.666667 0.333333 0 0
phys
0 -13.000000 11.000000 10.000000 -0.534522 0.801784 0.267261 0 0
0 -14.000000 10.000000 11.000000 -0.534522 0.801784 0.267261 0 0
0 -13.000000 10.000000 13.000000 -0.534522 0.801784 0.267261 0 0
phys
0 5.000000 -12.000000 4.000000 0.066454 -0.996805 0.044302 0 0
0 14.000000 -11.000000 13.000000 0.066454 -0.996805 0.044302 0 0
0 3.000000 -12.000000 7.000000 0.066454 -0.996805 0.044302 0 0
phys
0 -11.000000 -5.000000 17.000000 -0.100440 -0.175771 0.979294 0 0
0 -4.000000 -9.000000 17.000000 -0.100440 -0.175771 0.979294 0 0
0 -10.000000 0.000000 18.000000 -0.100440 -0.175771 0.979294 0 0
phys
0 -10.000000 0.000000 18.000000 -0.272166 -0.136083 0.952579 0 0
0 -14.000000 -6.000000 16.000000 -0.272166 -0.136083 0.952579 0 0
0 -11.000000 -5.000000 17.000000 -0.272166 -0.136083 0.952579 0 0
phys
0 -13.000000 -9.000000 15.000000 -0.408248 -0.408248 0.816497 0 0
0 -14.000000 -6.000000 16.000000 -0.408248 -0.408248 0.816497 0 0
0 -14.000000 -10.000000 14.000000 -0.408248 -0.408248 0.816497 0 0
phys
0 -13.000000 -0.000000 17.000000 -0.314485 -0.104828 0.943456 0 0
0 -14.000000 -6.000000 16.000000 -0.314485 -0.104828 0.943456 0 0
0 -10.000000 0.000000 18.000000 -0.314485 -0.104828 0.943456 0 0
phys
0 -10.000000 0.000000 18.000000 -0.056749 -0.147546 0.987426 0 0
0 -4.000000 -9.000000 17.000000 -0.056749 -0.147546 0.987426 0 0
0 3.000000 -5.000000 18.000000 -0.056749 -0.147546 0.987426 0 0
phys
0 -13.000000 -11.000000 10.000000 -0.099449 -0.994490 0.033150 0 0
0 -14.000000 -11.000000 7.000000 -0.099449 -0.994490 0.033150 0 0
0 -3.000000 -12.000000 10.000000 -0.099449 -0.994490 0.033150 0 0
phys
0 -14.000000 -10.000000 14.000000 -0.097100 -0.971000 0.218475 0 0
0 -13.000000 -11.000000 10.000000 -0.097100 -0.971000 0.218475 0 0
0 -3.000000 -12.000000 10.000000 -0.097100 -0.971000 0.218475 0 0
phys
0 -3.000000 -12.000000 10.000000 -0.086477 -0.965654 0.245017 0 0
0 -0.000000 -11.000000 15.000000 -0.086477 -0.965654 0.245017 0 0
0 -14.000000 -10.000000 14.000000 -0.086477 -0.965654 0.245017 0 0
phys
0 -3.000000 -12.000000 10.000000 0.030994 -0.991801 0.123975 0 0
0 1.000000 -12.000000 9.000000 0.030994 -0.991801 0.123975 0 0
0 13.000000 -11.000000 14.000000 0.030994 -0.991801 0.123975 0 0
phys
0 13.000000 -11.000000 14.000000 0.014443 -0.982109 0.187756 0 0
0 -0.000000 -11.000000 15.000000 0.014443 -0.982109 0.187756 0 0
0 -3.000000 -12.000000 10.000000 0.014443 -0.982109 0.187756 0 0
phys
0 -14.000000 -10.000000 14.000000 -0.092450 -0.924500 0.369800 0 0
0 -0.000000 -11.000000 15.000000 -0.092450 -0.924500 0.369800 0 0
0 -10.000000 -10.000000 15.000000 -0.092450 -0.924500 0.369800 0 0
phys
0 -10.000000 -10.000000 15.000000 -0.077850 -0.778499 0.622799 0 0
0 -0.000000 -11.000000 15.000000 -0.077850 -0.778499 0.622799 0 0
0 -4.000000 -9.000000 17.000000 -0.077850 -0.778499 0.622799 0 0
phys
0 -10.000000 -10.000000 15.000000 -0.196116 -0.588348 0.784465 0 0
0 -13.000000 -9.000000 15.000000 -0.196116 -0.588348 0.784465 0 0
0 -14.000000 -10.000000 14.000000 -0.196116 -0.588348 0.784465 0 0
phys
0 -4.000000 -9.000000 17.000000 -0.181818 -0.545455 0.818182 0 0
0 -13.000000 -9.000000 15.000000 -0.181818 -0.545455 0.818182 0 0
0 -10.000000 -10.000000 15.000000 -0.181818 -0.545455 0.818182 0 0
phys
0 13.000000 11.000000 3.000000 0.655610 0.749269 -0.093659 0 0
0 14.000000 11.000000 10.000000 0.655610 0.749269 -0.093659 0 0
0 14.000000 10.000000 2.000000 0.655610 0.749269 -0.093659 0 0
phys
0 14.000000 10.000000 2.000000 0.093659 0.749269 -0.655610 0 0
0 7.000000 10.000000 1.000000 0.093659 0.749269 -0.655610 0 0
0 13.000000 11.000000 3.000000 0.093659 0.749269 -0.655610 0 0
phys
0 5.000000 4.000000 18.000000 0.142134 0.355335 0.923870 0 0
0 7.000000 11.000000 15.000000 0.142134 0.355335 0.923870 0 0
0 3.000000 10.000000 16.000000 0.142134 0.355335 0.923870 0 0
phys
0 11.000000 12.000000 11.000000 0.142134 0.923870 0.355335 0 0
0 6.000000 12.000000 13.000000 0.142134 0.923870 0.355335 0 0
0 10.000000 11.000000 14.000000 0.142134 0.923870 0.355335 0 0
phys
0 6.000000 12.000000 13.000000 0.130189 0.911322 0.390567 0 0
0 7.000000 11.000000 15.000000 0.130189 0.911322 0.390567 0 0
0 10.000000 11.000000 14.000000 0.130189 0.911322 0.390567 0 0
phys
0 14.000000 10.000000 13.000000 0.314270 0.864242 0.392837 0 0
0 11.000000 12.000000 11.000000 0.314270 0.864242 0.392837 0 0
0 10.000000 11.000000 14.000000 0.314270 0.864242 0.392837 0 0
phys
0 -14.000000 6.000000 15.000000 -0.742781 0.371391 0.557086 0 0
0 -13.000000 8.000000 15.000000 -0.742781 0.371391 0.557086 0 0
0 -14.000000 9.000000 13.000000 -0.742781 0.371391 0.557086 0 0
phys
0 -12.000000 9.000000 15.000000 -0.408248 0.408248 0.816497 0 0
0 -13.000000 8.000000 15.000000 -0.408248 0.408248 0.816497 0 0
0 -13.000000 6.000000 16.000000 -0.408248 0.408248 0.816497 0 0
phys
0 -13.000000 6.000000 16.000000 -0.224860 0.374766 0.899438 0 0
0 -9.000000 6.000000 17.000000 -0.224860 0.374766 0.899438 0 0
0 -12.000000 9.000000 15.000000 -0.224860 0.374766 0.899438 0 0
phys
0 -5.000000 8.000000 17.000000 0.000000 0.447214 0.894427 0 0
0 3.000000 10.000000 16.000000 0.000000 0.447214 0.894427 0 0
0 -3.000000 10.000000 16.000000 0.000000 0.447214 0.894427 0 0
phys
0 5.000000 4.000000 18.000000 0.036322 0.326895 0.944363 0 0
0 3.000000 10.000000 16.000000 0.036322 0.326895 0.944363 0 0
0 -5.000000 8.000000 17.000000 0.036322 0.326895 0.944363 0 0
phys
0 -3.000000 10.000000 16.000000 -0.152696 0.559885 0.814379 0 0
0 -12.000000 9.000000 15.000000 -0.152696 0.559885 0.814379 0 0
0 -5.000000 8.000000 17.000000 -0.152696 0.559885 0.814379 0 0
phys
0 -12.000000 9.000000 15.000000 -0.199007 0.398015 0.895533 0 0
0 -9.000000 6.000000 17.000000 -0.199007 0.398015 0.895533 0 0
0 -5.000000 8.000000 17.000000 -0.199007 0.398015 0.895533 0 0
phys
0 -0.000000 9.000000 0.000000 0.107833 0.215666 -0.970495 0 0
0 7.000000 10.000000 1.000000 0.107833 0.215666 -0.970495 0 0
0 11.000000 8.000000 1.000000 0.107833 0.215666 -0.970495 0 0
phys
0 11.000000 8.000000 1.000000 0.103418 0.155126 -0.982467 0 0
0 9.000000 3.000000 0.000000 0.103418 0.155126 -0.982467 0 0
0 -0.000000 9.000000 0.000000 0.103418 0.155126 -0.982467 0 0
phys
0 12.000000 7.000000 1.000000 0.140028 0.140028 -0.980196 0 0
0 9.000000 3.000000 0.000000 0.140028 0.140028 -0.980196 0 0
0 11.000000 8.000000 1.000000 0.140028 0.140028 -0.980196 0 0
phys
0 14.000000 10.000000 2.000000 0.192450 0.192450 -0.962250 0 0
0 12.000000 7.000000 1.000000 0.192450 0.192450 -0.962250 0 0
0 11.000000 8.000000 1.000000 0.192450 0.192450 -0.962250 0 0
phys
0 11.000000 8.000000 1.000000 0.136083 0.272166 -0.952579 0 0
0 7.000000 10.000000 1.000000 0.136083 0.272166 -0.952579 0 0
0 14.000000 10.000000 2.000000 0.136083 0.272166 -0.952579 0 0
phys
0 -11.000000 -8.000000 16.000000 -0.190693 -0.476731 0.858116 0 0
0 -13.000000 -9.000000 15.000000 -0.190693 -0.476731 0.858116 0 0
0 -4.000000 -9.000000 17.000000 -0.190693 -0.476731 0.858116 0 0
phys
0 -14.000000 -6.000000 16.000000 -0.254000 -0.381000 0.889001 0 0
0 -13.000000 -9.000000 15.000000 -0.254000 -0.381000 0.889001 0 0
0 -11.000000 -8.000000 16.000000 -0.254000 -0.381000 0.889001 0 0
phys
0 -4.000000 -9.000000 17.000000 -0.177822 -0.311188 0.933564 0 0
0 -11.000000 -5.000000 17.000000 -0.177822 -0.311188 0.933564 0 0
0 -11.000000 -8.000000 16.000000 -0.177822 -0.311188 0.933564 0 0
phys
0 -11.000000 -8.000000 16.000000 -0.206284 -0.309426 0.928279 0 0
0 -11.000000 -5.000000 17.000000 -0.206284 -0.309426 0.928279 0 0
0 -14.000000 -6.000000 16.000000 -0.206284 -0.309426 0.928279 0 0
phys
0 14.000000 -4.000000 16.000000 0.688247 -0.229416 0.688247 0 0
0 12.000000 -7.000000 17.000000 0.688247 -0.229416 0.688247 0 0
0 14.000000 -7.000000 15.000000 0.688247 -0.229416 0.688247 0 0
phys
0 8.000000 5.000000 17.000000 0.193801 0.339151 0.920553 0 0
0 7.000000 11.000000 15.000000 0.193801 0.339151 0.920553 0 0
0 5.000000 4.000000 18.000000 0.193801 0.339151 0.920553 0 0
phys
0 2.000000 -9.000000 17.000000 0.000000 -0.242536 0.970143 0 0
0 3.000000 -5.000000 18.000000 0.000000 -0.242536 0.970143 0 0
0 -4.000000 -9.000000 17.000000 0.000000 -0.242536 0.970143 0 0
phys
0 12.000000 -7.000000 17.000000 0.050833 -0.254164 0.965824 0 0
0 3.000000 -5.000000 18.000000 0.050833 -0.254164 0.965824 0 0
0 2.000000 -9.000000 17.000000 0.050833 -0.254164 0.965824 0 0
phys
0 2.000000 -9.000000 17.000000 0.089087 -0.445435 0.890871 0 0
0 12.000000 -9.000000 16.000000 0.089087 -0.445435 0.890871 0 0
0 12.000000 -7.000000 17.000000 0.089087 -0.445435 0.890871 0 0
phys
0 13.000000 -11.000000 14.000000 0.072310 -0.686946 0.723102 0 0
0 12.000000 -9.000000 16.000000 0.072310 -0.686946 0.723102 0 0
0 2.000000 -9.000000 17.000000 0.072310 -0.686946 0.723102 0 0
phys
0 -10.000000 -9.000000 1.000000 -0.241747 -0.080582 -0.966988 0 0
0 -14.000000 -9.000000 2.000000 -0.241747 -0.080582 -0.966988 0 0
0 -11.000000 -6.000000 1.000000 -0.241747 -0.080582 -0.966988 0 0
phys
0 -8.000000 5.000000 0.000000 -0.156594 -0.046978 -0.986545 0 0
0 -5.000000 -5.000000 0.000000 -0.156594 -0.046978 -0.986545 0 0
0 -11.000000 -6.000000 1.000000 -0.156594 -0.046978 -0.986545 0 0
phys
0 -11.000000 -6.000000 1.000000 -0.155752 -0.051917 -0.986431 0 0
0 -5.000000 -5.000000 0.000000 -0.155752 -0.051917 -0.986431 0 0
0 -10.000000 -9.000000 1.000000 -0.155752 -0.051917 -0.986431 0 0
phys
0 -11.000000 9.000000 1.000000 -0.340503 0.085126 -0.936382 0 0
0 -12.000000 5.000000 1.000000 -0.340503 0.085126 -0.936382 0 0
0 -14.000000 8.000000 2.000000 -0.340503 0.085126 -0.936382 0 0
phys
0 -8.000000 5.000000 0.000000 -0.242091 0.060523 -0.968364 0 0
0 -12.000000 5.000000 1.000000 -0.242091 0.060523 -0.968364 0 0
0 -11.000000 9.000000 1.000000 -0.242091 0.060523 -0.968364 0 0
phys
0 -10.000000 10.000000 1.000000 -0.101419 0.169031 -0.980379 0 0
0 -2.000000 9.000000 0.000000 -0.101419 0.169031 -0.980379 0 0
0 -7.000000 6.000000 0.000000 -0.101419 0.169031 -0.980379 0 0
phys
0 11.000000 12.000000 8.000000 0.140028 0.980196 -0.140028 0 0
0 13.000000 11.000000 3.000000 0.140028 0.980196 -0.140028 0 0
0 8.000000 12.000000 5.000000 0.140028 0.980196 -0.140028 0 0
phys
0 11.000000 12.000000 11.000000 0.316228 0.948683 -0.000000 0 0
0 14.000000 11.000000 10.000000 0.316228 0.948683 -0.000000 0 0
0 11.000000 12.000000 8.000000 0.316228 0.948683 -0.000000 0 0
phys
0 14.000000 11.000000 10.000000 0.345285 0.937201 -0.049326 0 0
0 13.000000 11.000000 3.000000 0.345285 0.937201 -0.049326 0 0
0 11.000000 12.000000 8.000000 0.345285 0.937201 -0.049326 0 0
phys
0 4.000000 11.000000 2.000000 0.066519 0.798228 -0.598671 0 0
0 13.000000 11.000000 3.000000 0.066519 0.798228 -0.598671 0 0
0 7.000000 10.000000 1.000000 0.066519 0.798228 -0.598671 0 0
phys
0 8.000000 12.000000 5.000000 0.040456 0.930480 -0.364101 0 0
0 13.000000 11.000000 3.000000 0.040456 0.930480 -0.364101 0 0
0 4.000000 11.000000 2.000000 0.040456 0.930480 -0.364101 0 0
phys
0 -9.000000 11.000000 13.000000 -0.176090 0.880451 0.440225 0 0
0 -4.000000 12.000000 13.000000 -0.176090 0.880451 0.440225 0 0
0 -9.000000 12.000000 11.000000 -0.176090 0.880451 0.440225 0 0
phys
0 -9.000000 12.000000 11.000000 -0.218218 0.872872 0.436436 0 0
0 -13.000000 10.000000 13.000000 -0.218218 0.872872 0.436436 0 0
0 -9.000000 11.000000 13.000000 -0.218218 0.872872 0.436436 0 0
phys
0 -8.000000 10.000000 15.000000 -0.169031 0.845154 0.507093 0 0
0 -4.000000 12.000000 13.000000 -0.169031 0.845154 0.507093 0 0
0 -9.000000 11.000000 13.000000 -0.169031 0.845154 0.507093 0 0
phys
0 14.000000 6.000000 15.000000 0.254824 0.305788 0.917365 0 0
0 8.000000 5.000000 17.000000 0.254824 0.305788 0.917365 0 0
0 14.000000 3.000000 16.000000 0.254824 0.305788 0.917365 0 0
phys
0 -13.000000 3.000000 17.000000 -0.169300 0.225733 0.959366 0 0
0 -10.000000 1.000000 18.000000 -0.169300 0.225733 0.959366 0 0
0 -9.000000 6.000000 17.000000 -0.169300 0.225733 0.959366 0 0
phys
0 -9.000000 6.000000 17.000000 -0.230769 0.307692 0.923077 0 0
0 -13.000000 6.000000 16.000000 -0.230769 0.307692 0.923077 0 0
0 -13.000000 3.000000 17.000000 -0.230769 0.307692 0.923077 0 0
phys
0 -13.000000 3.000000 17.000000 -0.534522 0.267261 0.801784 0 0
0 -13.000000 6.000000 16.000000 -0.534522 0.267261 0.801784 0 0
0 -14.000000 4.000000 16.000000 -0.534522 0.267261 0.801784 0 0
phys
0 5.000000 4.000000 18.000000 -0.016881 0.202577 0.979121 0 0
0 -5.000000 8.000000 17.000000 -0.016881 0.202577 0.979121 0 0
0 -7.000000 3.000000 18.000000 -0.016881 0.202577 0.979121 0 0
phys
0 -9.000000 6.000000 17.000000 -0.148250 0.222375 0.963624 0 0
0 -10.000000 1.000000 18.000000 -0.148250 0.222375 0.963624 0 0
0 -7.000000 3.000000 18.000000 -0.148250 0.222375 0.963624 0 0
phys
0 -7.000000 3.000000 18.000000 -0.120386 0.240772 0.963087 0 0
0 -5.000000 8.000000 17.000000 -0.120386 0.240772 0.963087 0 0
0 -9.000000 6.000000 17.000000 -0.120386 0.240772 0.963087 0 0
phys
0 -13.000000 -10.000000 2.000000 -0.577350 -0.577350 -0.577350 0 0
0 -14.000000 -10.000000 3.000000 -0.577350 -0.577350 -0.577350 0 0
0 -14.000000 -9.000000 2.000000 -0.577350 -0.577350 -0.577350 0 0
phys
0 -10.000000 -9.000000 1.000000 -0.147442 -0.442326 -0.884652 0 0
0 -10.000000 -11.000000 2.000000 -0.147442 -0.442326 -0.884652 0 0
0 -13.000000 -10.000000 2.000000 -0.147442 -0.442326 -0.884652 0 0
phys
0 -13.000000 -10.000000 2.000000 -0.235702 -0.235702 -0.942809 0 0
0 -14.000000 -9.000000 2.000000 -0.235702 -0.235702 -0.942809 0 0
0 -10.000000 -9.000000 1.000000 -0.235702 -0.235702 -0.942809 0 0
phys
0 12.000000 -11.000000 2.000000 0.408248 -0.408248 -0.816497 0 0
0 14.000000 -9.000000 2.000000 0.408248 -0.408248 -0.816497 0 0
0 14.000000 -11.000000 3.000000 0.408248 -0.408248 -0.816497 0 0
phys
0 14.000000 -11.000000 3.000000 0.107833 -0.970495 -0.215666 0 0
0 5.000000 -12.000000 3.000000 0.107833 -0.970495 -0.215666 0 0
0 12.000000 -11.000000 2.000000 0.107833 -0.970495 -0.215666 0 0
phys
0 13.000000 -7.000000 1.000000 0.301511 -0.301511 -0.904534 0 0
0 14.000000 -9.000000 2.000000 0.301511 -0.301511 -0.904534 0 0
0 12.000000 -11.000000 2.000000 0.301511 -0.301511 -0.904534 0 0
phys
0 12.000000 -11.000000 2.000000 0.215387 -0.287183 -0.933346 0 0
0 9.000000 -10.000000 1.000000 0.215387 -0.287183 -0.933346 0 0
0 13.000000 -7.000000 1.000000 0.215387 -0.287183 -0.933346 0 0
phys
0 -4.000000 -10.000000 1.000000 -0.074329 -0.445976 -0.891953 0 0
0 -10.000000 -11.000000 2.000000 -0.074329 -0.445976 -0.891953 0 0
0 -10.000000 -9.000000 1.000000 -0.074329 -0.445976 -0.891953 0 0
phys
0 -10.000000 -9.000000 1.000000 -0.033748 -0.202490 -0.978703 0 0
0 -5.000000 -5.000000 0.000000 -0.033748 -0.202490 -0.978703 0 0
0 -4.000000 -10.000000 1.000000 -0.033748 -0.202490 -0.978703 0 0
phys
0 5.000000 -4.000000 0.000000 0.035333 -0.141333 -0.989331 0 0
0 9.000000 -10.000000 1.000000 0.035333 -0.141333 -0.989331 0 0
0 1.000000 -5.000000 0.000000 0.035333 -0.141333 -0.989331 0 0
phys
0 13.000000 -7.000000 1.000000 0.082541 -0.110055 -0.990492 0 0
0 9.000000 -10.000000 1.000000 0.082541 -0.110055 -0.990492 0 0
0 5.000000 -4.000000 0.000000 0.082541 -0.110055 -0.990492 0 0
phys
0 13.000000 -7.000000 1.000000 0.242536 -0.000000 -0.970143 0 0
0 9.000000 3.000000 0.000000 0.242536 -0.000000 -0.970143 0 0
0 13.000000 -4.000000 1.000000 0.242536 -0.000000 -0.970143 0 0
phys
0 13.000000 -4.000000 1.000000 0.284875 0.025898 -0.958215 0 0
0 9.000000 3.000000 0.000000 0.284875 0.025898 -0.958215 0 0
0 12.000000 7.000000 1.000000 0.284875 0.025898 -0.958215 0 0
phys
0 13.000000 -4.000000 1.000000 0.402469 0.036588 -0.914702 0 0
0 12.000000 7.000000 1.000000 0.402469 0.036588 -0.914702 0 0
0 14.000000 10.000000 2.000000 0.402469 0.036588 -0.914702 0 0
phys
0 10.000000 3.000000 17.000000 0.239426 0.159617 0.957704 0 0
0 12.000000 0.000000 17.000000 0.239426 0.159617 0.957704 0 0
0 14.000000 3.000000 16.000000 0.239426 0.159617 0.957704 0 0
phys
0 5.000000 4.000000 18.000000 0.222375 0.148250 0.963624 0 0
0 12.000000 0.000000 17.000000 0.222375 0.148250 0.963624 0 0
0 10.000000 3.000000 17.000000 0.222375 0.148250 0.963624 0 0
phys
0 4.000000 -4.000000 18.000000 0.090167 -0.090167 0.991837 0 0
0 3.000000 -5.000000 18.000000 0.090167 -0.090167 0.991837 0 0
0 12.000000 -7.000000 17.000000 0.090167 -0.090167 0.991837 0 0
phys
0 12.000000 -7.000000 17.000000 0.099286 -0.066190 0.992855 0 0
0 6.000000 -1.000000 18.000000 0.099286 -0.066190 0.992855 0 0
0 4.000000 -4.000000 18.000000 0.099286 -0.066190 0.992855 0 0
phys
0 6.000000 -0.000000 18.000000 0.164260 0.041065 0.985562 0 0
0 12.000000 0.000000 17.000000 0.164260 0.041065 0.985562 0 0
0 5.000000 4.000000 18.000000 0.164260 0.041065 0.985562 0 0
phys
0 -12.000000 1.000000 1.000000 -0.279776 -0.039968 -0.959233 0 0
0 -11.000000 -6.000000 1.000000 -0.279776 -0.039968 -0.959233 0 0
0 -14.000000 -9.000000 2.000000 -0.279776 -0.039968 -0.959233 0 0
phys
0 -8.000000 5.000000 0.000000 -0.213597 -0.030514 -0.976445 0 0
0 -11.000000 -6.000000 1.000000 -0.213597 -0.030514 -0.976445 0 0
0 -12.000000 1.000000 1.000000 -0.213597 -0.030514 -0.976445 0 0
phys
0 -8.000000 12.000000 5.000000 -0.076696 0.920358 -0.383482 0 0
0 -5.000000 11.000000 2.000000 -0.076696 0.920358 -0.383482 0 0
0 -10.000000 11.000000 3.000000 -0.076696 0.920358 -0.383482 0 0
phys
0 -10.000000 11.000000 3.000000 -0.089087 0.890871 -0.445435 0 0
0 -5.000000 11.000000 2.000000 -0.089087 0.890871 -0.445435 0 0
0 -10.000000 10.000000 1.000000 -0.089087 0.890871 -0.445435 0 0
phys
0 10.000000 9.000000 15.000000 0.285714 0.428571 0.857143 0 0
0 10.000000 11.000000 14.000000 0.285714 0.428571 0.857143 0 0
0 7.000000 11.000000 15.000000 0.285714 0.428571 0.857143 0 0
phys
0 7.000000 11.000000 15.000000 0.227921 0.341882 0.911685 0 0
0 8.000000 5.000000 17.000000 0.227921 0.341882 0.911685 0 0
0 10.000000 9.000000 15.000000 0.227921 0.341882 0.911685 0 0
phys
0 8.000000 5.000000 17.000000 0.248282 0.331042 0.910366 0 0
0 14.000000 6.000000 15.000000 0.248282 0.331042 0.910366 0 0
0 10.000000 9.000000 15.000000 0.248282 0.331042 0.910366 0 0
phys
0 13.000000 -7.000000 1.000000 0.090167 -0.090167 -0.991837 0 0
0 5.000000 -4.000000 0.000000 0.090167 -0.090167 -0.991837 0 0
0 7.000000 -2.000000 0.000000 0.090167 -0.090167 -0.991837 0 0
phys
0 -8.000000 12.000000 5.000000 -0.156174 0.937043 -0.312348 0 0
0 -10.000000 11.000000 3.000000 -0.156174 0.937043 -0.312348 0 0
0 -12.000000 11.000000 4.000000 -0.156174 0.937043 -0.312348 0 0
phys
0 -12.000000 11.000000 4.000000 -0.301511 0.904534 -0.301511 0 0
0 -14.000000 10.000000 3.000000 -0.301511 0.904534 -0.301511 0 0
0 -13.000000 11.000000 5.000000 -0.301511 0.904534 -0.301511 0 0
phys
0 8.000000 0.000000 0.000000 0.134976 -0.044992 -0.989827 0 0
0 9.000000 3.000000 0.000000 0.134976 -0.044992 -0.989827 0 0
0 13.000000 -7.000000 1.000000 0.134976 -0.044992 -0.989827 0 0
phys
0 13.000000 -7.000000 1.000000 0.116642 -0.058321 -0.991460 0 0
0 7.000000 -2.000000 0.000000 0.116642 -0.058321 -0.991460 0 0
0 8.000000 0.000000 0.000000 0.116642 -0.058321 -0.991460 0 0
phys
0 -12.000000 9.000000 15.000000 -0.577350 0.577350 0.577350 0 0
0 -13.000000 10.000000 13.000000 -0.577350 0.577350 0.577350 0 0
0 -13.000000 8.000000 15.000000 -0.577350 0.577350 0.577350 0 0
phys
0 -13.000000 8.000000 15.000000 -0.577350 0.577350 0.577350 0 0
0 -13.000000 10.000000 13.000000 -0.577350 0.577350 0.577350 0 0
0 -14.000000 9.000000 13.000000 -0.577350 0.577350 0.577350 0 0
phys
0 14.000000 -11.000000 3.000000 0.110432 -0.993884 -0.000000 0 0
0 14.000000 -11.000000 13.000000 0.110432 -0.993884 -0.000000 0 0
0 5.000000 -12.000000 3.000000 0.110432 -0.993884 -0.000000 0 0
phys
0 5.000000 -12.000000 3.000000 0.110432 -0.993884 0.000000 0 0
0 14.000000 -11.000000 13.000000 0.110432 -0.993884 0.000000 0 0
0 5.000000 -12.000000 4.000000 0.110432 -0.993884 0.000000 0 0
phys
0 3.000000 -12.000000 7.000000 0.058621 -0.996558 0.058621 0 0
0 14.000000 -11.000000 13.000000 0.058621 -0.996558 0.058621 0 0
0 13.000000 -11.000000 14.000000 0.058621 -0.996558 0.058621 0 0
phys
0 13.000000 -11.000000 14.000000 0.058621 -0.996558 0.058621 0 0
0 1.000000 -12.000000 9.000000 0.058621 -0.996558 0.058621 0 0
0 3.000000 -12.000000 7.000000 0.058621 -0.996558 0.058621 0 0
phys
0 -10.000000 -11.000000 2.000000 -0.060248 -0.994084 -0.090371 0 0
0 5.000000 -12.000000 3.000000 -0.060248 -0.994084 -0.090371 0 0
0 -1.000000 -12.000000 7.000000 -0.060248 -0.994084 -0.090371 0 0
phys
0 12.000000 -9.000000 16.000000 0.666667 -0.333333 0.666667 0 0
0 14.000000 -11.000000 13.000000 0.666667 -0.333333 0.666667 0 0
0 14.000000 -7.000000 15.000000 0.666667 -0.333333 0.666667 0 0
phys
0 13.000000 -11.000000 14.000000 0.666667 -0.333333 0.666667 0 0
0 14.000000 -11.000000 13.000000 0.666667 -0.333333 0.666667 0 0
0 12.000000 -9.000000 16.000000 0.666667 -0.333333 0.666667 0 0
phys
0 14.000000 -7.000000 15.000000 0.666667 -0.333333 0.666667 0 0
0 12.000000 -7.000000 17.000000 0.666667 -0.333333 0.666667 0 0
0 12.000000 -9.000000 16.000000 0.666667 -0.333333 0.666667 0 0
phys
0 -13.000000 6.000000 16.000000 -0.666667 0.333333 0.666667 0 0
0 -14.000000 6.000000 15.000000 -0.666667 0.333333 0.666667 0 0
0 -14.000000 4.000000 16.000000 -0.666667 0.333333 0.666667 0 0
phys
0 -13.000000 8.000000 15.000000 -0.666667 0.333333 0.666667 0 0
0 -14.000000 6.000000 15.000000 -0.666667 0.333333 0.666667 0 0
0 -13.000000 6.000000 16.000000 -0.666667 0.333333 0.666667 0 0
phys
0 12.000000 0.000000 17.000000 0.447214 0.000000 0.894427 0 0
0 14.000000 -4.000000 16.000000 0.447214 0.000000 0.894427 0 0
0 14.000000 3.000000 16.000000 0.447214 0.000000 0.894427 0 0
phys
0 12.000000 -7.000000 17.000000 0.447214 0.000000 0.894427 0 0
0 14.000000 -4.000000 16.000000 0.447214 0.000000 0.894427 0 0
0 12.000000 0.000000 17.000000 0.447214 0.000000 0.894427 0 0
phys
0 -4.000000 -9.000000 17.000000 -0.000000 -0.707107 0.707107 0 0
0 -0.000000 -11.000000 15.000000 -0.000000 -0.707107 0.707107 0 0
0 2.000000 -9.000000 17.000000 -0.000000 -0.707107 0.707107 0 0
phys
0 2.000000 -9.000000 17.000000 0.052271 -0.731792 0.679521 0 0
0 -0.000000 -11.000000 15.000000 0.052271 -0.731792 0.679521 0 0
0 13.000000 -11.000000 14.000000 0.052271 -0.731792 0.679521 0 0
phys
0 -10.000000 -11.000000 2.000000 -0.071067 -0.994937 -0.071067 0 0
0 -1.000000 -12.000000 7.000000 -0.071067 -0.994937 -0.071067 0 0
0 -3.000000 -12.000000 9.000000 -0.071067 -0.994937 -0.071067 0 0
phys
0 -14.000000 -11.000000 6.000000 -0.071067 -0.994937 -0.071067 0 0
0 -10.000000 -11.000000 2.000000 -0.071067 -0.994937 -0.071067 0 0
0 -3.000000 -12.000000 9.000000 -0.071067 -0.994937 -0.071067 0 0
phys
0 -3.000000 -12.000000 9.000000 0.000000 -1.000000 0.000000 0 0
0 5.000000 -12.000000 3.000000 0.000000 -1.000000 0.000000 0 0
0 5.000000 -12.000000 4.000000 0.000000 -1.000000 0.000000 0 0
phys
0 5.000000 -12.000000 4.000000 -0.000000 -1.000000 -0.000000 0 0
0 3.000000 -12.000000 7.000000 -0.000000 -1.000000 -0.000000 0 0
0 -3.000000 -12.000000 9.000000 -0.000000 -1.000000 -0.000000 0 0
phys
0 -3.000000 -12.000000 9.000000 0.000000 -1.000000 0.000000 0 0
0 -1.000000 -12.000000 7.000000 0.000000 -1.000000 0.000000 0 0
0 5.000000 -12.000000 3.000000 0.000000 -1.000000 0.000000 0 0
phys
0 -3.000000 -12.000000 9.000000 0.000000 -1.000000 0.000000 0 0
0 3.000000 -12.000000 7.000000 0.000000 -1.000000 0.000000 0 0
0 1.000000 -12.000000 9.000000 0.000000 -1.000000 0.000000 0 0
phys
0 1.000000 -12.000000 9.000000 -0.000000 -1.000000 -0.000000 0 0
0 -3.000000 -12.000000 10.000000 -0.000000 -1.000000 -0.000000 0 0
0 -3.000000 -12.000000 9.000000 -0.000000 -1.000000 -0.000000 0 0
phys
0 -3.000000 -12.000000 9.000000 -0.090536 -0.995893 0.000000 0 0
0 -14.000000 -11.000000 7.000000 -0.090536 -0.995893 0.000000 0 0
0 -14.000000 -11.000000 6.000000 -0.090536 -0.995893 0.000000 0 0
phys
0 -3.000000 -12.000000 9.000000 -0.090536 -0.995893 0.000000 0 0
0 -3.000000 -12.000000 10.000000 -0.090536 -0.995893 0.000000 0 0
0 -14.000000 -11.000000 7.000000 -0.090536 -0.995893 0.000000 0 0
phys
0 -8.000000 5.000000 0.000000 -0.140028 0.140028 -0.980196 0 0
0 -11.000000 9.000000 1.000000 -0.140028 0.140028 -0.980196 0 0
0 -7.000000 6.000000 0.000000 -0.140028 0.140028 -0.980196 0 0
phys
0 -7.000000 6.000000 0.000000 -0.140028 0.140028 -0.980196 0 0
0 -11.000000 9.000000 1.000000 -0.140028 0.140028 -0.980196 0 0
0 -10.000000 10.000000 1.000000 -0.140028 0.140028 -0.980196 0 0
phys
0 -13.000000 11.000000 5.000000 -0.316228 0.948683 0.000000 0 0
0 -10.000000 12.000000 8.000000 -0.316228 0.948683 0.000000 0 0
0 -10.000000 12.000000 7.000000 -0.316228 0.948683 0.000000 0 0
phys
0 -13.000000 11.000000 10.000000 -0.316228 0.948683 -0.000000 0 0
0 -10.000000 12.000000 8.000000 -0.316228 0.948683 -0.000000 0 0
0 -13.000000 11.000000 5.000000 -0.316228 0.948683 -0.000000 0 0
phys
0 -10.000000 12.000000 7.000000 0.000000 1.000000 -0.000000 0 0
0 -10.000000 12.000000 8.000000 0.000000 1.000000 -0.000000 0 0
0 11.000000 12.000000 8.000000 0.000000 1.000000 -0.000000 0 0
phys
0 8.000000 12.000000 5.000000 -0.000000 1.000000 -0.000000 0 0
0 -8.000000 12.000000 5.000000 -0.000000 1.000000 -0.000000 0 0
0 11.000000 12.000000 8.000000 -0.000000 1.000000 -0.000000 0 0
phys
0 11.000000 12.000000 8.000000 0.000000 1.000000 -0.000000 0 0
0 6.000000 12.000000 13.000000 0.000000 1.000000 -0.000000 0 0
0 11.000000 12.000000 11.000000 0.000000 1.000000 -0.000000 0 0
phys
0 11.000000 12.000000 8.000000 0.000000 1.000000 0.000000 0 0
0 -10.000000 12.000000 8.000000 0.000000 1.000000 0.000000 0 0
0 -9.000000 12.000000 11.000000 0.000000 1.000000 0.000000 0 0
phys
0 -9.000000 12.000000 11.000000 -0.000000 1.000000 -0.000000 0 0
0 -4.000000 12.000000 13.000000 -0.000000 1.000000 -0.000000 0 0
0 11.000000 12.000000 8.000000 -0.000000 1.000000 -0.000000 0 0
phys
0 11.000000 12.000000 8.000000 0.000000 1.000000 0.000000 0 0
0 -8.000000 12.000000 5.000000 0.000000 1.000000 0.000000 0 0
0 -10.000000 12.000000 7.000000 0.000000 1.000000 0.000000 0 0
phys
0 11.000000 12.000000 8.000000 0.000000 1.000000 0.000000 0 0
0 -4.000000 12.000000 13.000000 0.000000 1.000000 0.000000 0 0
0 6.000000 12.000000 13.000000 0.000000 1.000000 0.000000 0 0
phys
0 4.000000 11.000000 2.000000 0.000000 0.707107 -0.707107 0 0
0 7.000000 10.000000 1.000000 0.000000 0.707107 -0.707107 0 0
0 -0.000000 9.000000 0.000000 0.000000 0.707107 -0.707107 0 0
phys
0 -0.000000 9.000000 0.000000 -0.000000 0.707107 -0.707107 0 0
0 -2.000000 9.000000 0.000000 -0.000000 0.707107 -0.707107 0 0
0 4.000000 11.000000 2.000000 -0.000000 0.707107 -0.707107 0 0
phys
0 4.000000 11.000000 2.000000 0.000000 0.707107 -0.707107 0 0
0 -2.000000 9.000000 0.000000 0.000000 0.707107 -0.707107 0 0
0 -10.000000 10.000000 1.000000 0.000000 0.707107 -0.707107 0 0
phys
0 -10.000000 10.000000 1.000000 -0.000000 0.707107 -0.707107 0 0
0 -5.000000 11.000000 2.000000 -0.000000 0.707107 -0.707107 0 0
0 4.000000 11.000000 2.000000 -0.000000 0.707107 -0.707107 0 0
phys
0 4.000000 11.000000 2.000000 0.000000 0.948683 -0.316228 0 0
0 -8.000000 12.000000 5.000000 0.000000 0.948683 -0.316228 0 0
0 8.000000 12.000000 5.000000 0.000000 0.948683 -0.316228 0 0
phys
0 4.000000 11.000000 2.000000 0.000000 0.948683 -0.316228 0 0
0 -5.000000 11.000000 2.000000 0.000000 0.948683 -0.316228 0 0
0 -8.000000 12.000000 5.000000 0.000000 0.948683 -0.316228 0 0
phys
0 -1.000000 11.000000 15.000000 -0.000000 0.707107 0.707107 0 0
0 3.000000 10.000000 16.000000 -0.000000 0.707107 0.707107 0 0
0 7.000000 11.000000 15.000000 -0.000000 0.707107 0.707107 0 0
phys
0 -3.000000 10.000000 16.000000 -0.000000 0.707107 0.707107 0 0
0 3.000000 10.000000 16.000000 -0.000000 0.707107 0.707107 0 0
0 -1.000000 11.000000 15.000000 -0.000000 0.707107 0.707107 0 0
phys
0 -1.000000 11.000000 15.000000 -0.115470 0.808290 0.577350 0 0
0 -4.000000 12.000000 13.000000 -0.115470 0.808290 0.577350 0 0
0 -8.000000 10.000000 15.000000 -0.115470 0.808290 0.577350 0 0
phys
0 -1.000000 11.000000 15.000000 -0.115470 0.808290 0.577350 0 0
0 -8.000000 10.000000 15.000000 -0.115470 0.808290 0.577350 0 0
0 -3.000000 10.000000 16.000000 -0.115470 0.808290 0.577350 0 0
phys
0 6.000000 12.000000 13.000000 -0.000000 0.894427 0.447214 0 0
0 -4.000000 12.000000 13.000000 -0.000000 0.894427 0.447214 0 0
0 -1.000000 11.000000 15.000000 -0.000000 0.894427 0.447214 0 0
phys
0 -1.000000 11.000000 15.000000 -0.000000 0.894427 0.447214 0 0
0 7.000000 11.000000 15.000000 -0.000000 0.894427 0.447214 0 0
0 6.000000 12.000000 13.000000 -0.000000 0.894427 0.447214 0 0
phys
0 -9.000000 11.000000 13.000000 -0.207390 0.829561 0.518476 0 0
0 -13.000000 10.000000 13.000000 -0.207390 0.829561 0.518476 0 0
0 -12.000000 9.000000 15.000000 -0.207390 0.829561 0.518476 0 0
phys
0 -12.000000 9.000000 15.000000 -0.207390 0.829561 0.518476 0 0
0 -8.000000 10.000000 15.000000 -0.207390 0.829561 0.518476 0 0
0 -9.000000 11.000000 13.000000 -0.207390 0.829561 0.518476 0 0
phys
0 14.000000 6.000000 15.000000 1.000000 0.000000 0.000000 0 0
0 14.000000 -11.000000 13.000000 1.000000 0.000000 0.000000 0 0
0 14.000000 -11.000000 3.000000 1.000000 0.000000 0.000000 0 0
phys
0 14.000000 6.000000 15.000000 1.000000 0.000000 0.000000 0 0
0 14.000000 11.000000 10.000000 1.000000 0.000000 0.000000 0 0
0 14.000000 10.000000 13.000000 1.000000 0.000000 0.000000 0 0
phys
0 14.000000 -11.000000 3.000000 1.000000 -0.000000 -0.000000 0 0
0 14.000000 -9.000000 2.000000 1.000000 -0.000000 -0.000000 0 0
0 14.000000 6.000000 15.000000 1.000000 -0.000000 -0.000000 0 0
phys
0 14.000000 -7.000000 15.000000 1.000000 0.000000 -0.000000 0 0
0 14.000000 -11.000000 13.000000 1.000000 0.000000 -0.000000 0 0
0 14.000000 6.000000 15.000000 1.000000 0.000000 -0.000000 0 0
phys
0 14.000000 10.000000 2.000000 1.000000 -0.000000 -0.000000 0 0
0 14.000000 11.000000 10.000000 1.000000 -0.000000 -0.000000 0 0
0 14.000000 6.000000 15.000000 1.000000 -0.000000 -0.000000 0 0
phys
0 14.000000 6.000000 15.000000 1.000000 0.000000 0.000000 0 0
0 14.000000 -9.000000 2.000000 1.000000 0.000000 0.000000 0 0
0 14.000000 10.000000 2.000000 1.000000 0.000000 0.000000 0 0
phys
0 14.000000 6.000000 15.000000 1.000000 0.000000 0.000000 0 0
0 14.000000 -4.000000 16.000000 1.000000 0.000000 0.000000 0 0
0 14.000000 -7.000000 15.000000 1.000000 0.000000 0.000000 0 0
phys
0 14.000000 3.000000 16.000000 1.000000 -0.000000 -0.000000 0 0
0 14.000000 -4.000000 16.000000 1.000000 -0.000000 -0.000000 0 0
0 14.000000 6.000000 15.000000 1.000000 -0.000000 -0.000000 0 0
phys
0 -10.000000 0.000000 18.000000 -0.316228 -0.000000 0.948683 0 0
0 -10.000000 1.000000 18.000000 -0.316228 -0.000000 0.948683 0 0
0 -13.000000 3.000000 17.000000 -0.316228 -0.000000 0.948683 0 0
phys
0 -13.000000 3.000000 17.000000 -0.316228 0.000000 0.948683 0 0
0 -13.000000 -0.000000 17.000000 -0.316228 0.000000 0.948683 0 0
0 -10.000000 0.000000 18.000000 -0.316228 0.000000 0.948683 0 0
phys
0 -14.000000 4.000000 16.000000 -0.707107 -0.000000 0.707107 0 0
0 -14.000000 -6.000000 16.000000 -0.707107 -0.000000 0.707107 0 0
0 -13.000000 3.000000 17.000000 -0.707107 -0.000000 0.707107 0 0
phys
0 -14.000000 -6.000000 16.000000 -0.707107 -0.000000 0.707107 0 0
0 -13.000000 -0.000000 17.000000 -0.707107 -0.000000 0.707107 0 0
0 -13.000000 3.000000 17.000000 -0.707107 -0.000000 0.707107 0 0
phys
0 -13.000000 -10.000000 2.000000 -0.301511 -0.904534 -0.301511 0 0
0 -10.000000 -11.000000 2.000000 -0.301511 -0.904534 -0.301511 0 0
0 -14.000000 -11.000000 6.000000 -0.301511 -0.904534 -0.301511 0 0
phys
0 -14.000000 -11.000000 6.000000 -0.301511 -0.904534 -0.301511 0 0
0 -14.000000 -10.000000 3.000000 -0.301511 -0.904534 -0.301511 0 0
0 -13.000000 -10.000000 2.000000 -0.301511 -0.904534 -0.301511 0 0
phys
0 -4.000000 -10.000000 1.000000 0.000000 -0.707107 -0.707107 0 0
0 5.000000 -12.000000 3.000000 0.000000 -0.707107 -0.707107 0 0
0 -10.000000 -11.000000 2.000000 0.000000 -0.707107 -0.707107 0 0
phys
0 -4.000000 -10.000000 1.000000 0.000000 -0.707107 -0.707107 0 0
0 12.000000 -11.000000 2.000000 0.000000 -0.707107 -0.707107 0 0
0 5.000000 -12.000000 3.000000 0.000000 -0.707107 -0.707107 0 0
phys
0 9.000000 -10.000000 1.000000 0.000000 -0.707107 -0.707107 0 0
0 12.000000 -11.000000 2.000000 0.000000 -0.707107 -0.707107 0 0
0 -4.000000 -10.000000 1.000000 0.000000 -0.707107 -0.707107 0 0
phys
0 -4.000000 -10.000000 1.000000 0.000000 -0.196116 -0.980581 0 0
0 -5.000000 -5.000000 0.000000 0.000000 -0.196116 -0.980581 0 0
0 1.000000 -5.000000 0.000000 0.000000 -0.196116 -0.980581 0 0
phys
0 1.000000 -5.000000 0.000000 0.000000 -0.196116 -0.980581 0 0
0 9.000000 -10.000000 1.000000 0.000000 -0.196116 -0.980581 0 0
0 -4.000000 -10.000000 1.000000 0.000000 -0.196116 -0.980581 0 0
phys
0 14.000000 10.000000 2.000000 0.707107 -0.000000 -0.707107 0 0
0 14.000000 -9.000000 2.000000 0.707107 -0.000000 -0.707107 0 0
0 13.000000 -4.000000 1.000000 0.707107 -0.000000 -0.707107 0 0
phys
0 13.000000 -4.000000 1.000000 0.707107 0.000000 -0.707107 0 0
0 14.000000 -9.000000 2.000000 0.707107 0.000000 -0.707107 0 0
0 13.000000 -7.000000 1.000000 0.707107 0.000000 -0.707107 0 0
phys
0 14.000000 3.000000 16.000000 0.235702 0.235702 0.942809 0 0
0 8.000000 5.000000 17.000000 0.235702 0.235702 0.942809 0 0
0 10.000000 3.000000 17.000000 0.235702 0.235702 0.942809 0 0
phys
0 10.000000 3.000000 17.000000 0.235702 0.235702 0.942809 0 0
0 8.000000 5.000000 17.000000 0.235702 0.235702 0.942809 0 0
0 5.000000 4.000000 18.000000 0.235702 0.235702 0.942809 0 0
phys
0 3.000000 -5.000000 18.000000 -0.000000 -0.000000 1.000000 0 0
0 4.000000 -4.000000 18.000000 -0.000000 -0.000000 1.000000 0 0
0 6.000000 -0.000000 18.000000 -0.000000 -0.000000 1.000000 0 0
phys
0 -10.000000 0.000000 18.000000 0.000000 -0.000000 1.000000 0 0
0 3.000000 -5.000000 18.000000 0.000000 -0.000000 1.000000 0 0
0 6.000000 -0.000000 18.000000 0.000000 -0.000000 1.000000 0 0
phys
0 6.000000 -0.000000 18.000000 0.000000 0.000000 1.000000 0 0
0 -10.000000 1.000000 18.000000 0.000000 0.000000 1.000000 0 0
0 -10.000000 0.000000 18.000000 0.000000 0.000000 1.000000 0 0
phys
0 5.000000 4.000000 18.000000 -0.000000 -0.000000 1.000000 0 0
0 -7.000000 3.000000 18.000000 -0.000000 -0.000000 1.000000 0 0
0 6.000000 -0.000000 18.000000 -0.000000 -0.000000 1.000000 0 0
phys
0 6.000000 -0.000000 18.000000 0.000000 0.000000 1.000000 0 0
0 -7.000000 3.000000 18.000000 0.000000 0.000000 1.000000 0 0
0 -10.000000 1.000000 18.000000 0.000000 0.000000 1.000000 0 0
phys
0 6.000000 -0.000000 18.000000 0.000000 0.000000 1.000000 0 0
0 4.000000 -4.000000 18.000000 0.000000 0.000000 1.000000 0 0
0 6.000000 -1.000000 18.000000 0.000000 0.000000 1.000000 0 0
phys
0 12.000000 -7.000000 17.000000 0.164399 -0.000000 0.986394 0 0
0 12.000000 0.000000 17.000000 0.164399 -0.000000 0.986394 0 0
0 6.000000 -0.000000 18.000000 0.164399 -0.000000 0.986394 0 0
phys
0 6.000000 -0.000000 18.000000 0.164399 0.000000 0.986394 0 0
0 6.000000 -1.000000 18.000000 0.164399 0.000000 0.986394 0 0
0 12.000000 -7.000000 17.000000 0.164399 0.000000 0.986394 0 0
phys
0 -12.000000 1.000000 1.000000 -0.447214 0.000000 -0.894427 0 0
0 -14.000000 -9.000000 2.000000 -0.447214 0.000000 -0.894427 0 0
0 -14.000000 8.000000 2.000000 -0.447214 0.000000 -0.894427 0 0
phys
0 -14.000000 8.000000 2.000000 -0.447214 0.000000 -0.894427 0 0
0 -12.000000 5.000000 1.000000 -0.447214 0.000000 -0.894427 0 0
0 -12.000000 1.000000 1.000000 -0.447214 0.000000 -0.894427 0 0
phys
0 -12.000000 1.000000 1.000000 -0.242536 0.000000 -0.970143 0 0
0 -12.000000 5.000000 1.000000 -0.242536 0.000000 -0.970143 0 0
0 -8.000000 5.000000 0.000000 -0.242536 0.000000 -0.970143 0 0
phys
0 -14.000000 10.000000 3.000000 -0.707107 0.707107 0.000000 0 0
0 -14.000000 10.000000 11.000000 -0.707107 0.707107 0.000000 0 0
0 -13.000000 11.000000 10.000000 -0.707107 0.707107 0.000000 0 0
phys
0 -13.000000 11.000000 10.000000 -0.707107 0.707107 -0.000000 0 0
0 -13.000000 11.000000 5.000000 -0.707107 0.707107 -0.000000 0 0
0 -14.000000 10.000000 3.000000 -0.707107 0.707107 -0.000000 0 0
phys
0 -14.000000 10.000000 3.000000 -1.000000 0.000000 0.000000 0 0
0 -14.000000 -10.000000 3.000000 -1.000000 0.000000 0.000000 0 0
0 -14.000000 -11.000000 6.000000 -1.000000 0.000000 0.000000 0 0
phys
0 -14.000000 -10.000000 14.000000 -1.000000 -0.000000 -0.000000 0 0
0 -14.000000 -6.000000 16.000000 -1.000000 -0.000000 -0.000000 0 0
0 -14.000000 10.000000 3.000000 -1.000000 -0.000000 -0.000000 0 0
phys
0 -14.000000 -11.000000 6.000000 -1.000000 -0.000000 -0.000000 0 0
0 -14.000000 -11.000000 7.000000 -1.000000 -0.000000 -0.000000 0 0
0 -14.000000 10.000000 3.000000 -1.000000 -0.000000 -0.000000 0 0
phys
0 -14.000000 9.000000 13.000000 -1.000000 -0.000000 0.000000 0 0
0 -14.000000 10.000000 11.000000 -1.000000 -0.000000 0.000000 0 0
0 -14.000000 10.000000 3.000000 -1.000000 -0.000000 0.000000 0 0
phys
0 -14.000000 10.000000 3.000000 -1.000000 0.000000 0.000000 0 0
0 -14.000000 6.000000 15.000000 -1.000000 0.000000 0.000000 0 0
0 -14.000000 9.000000 13.000000 -1.000000 0.000000 0.000000 0 0
phys
0 -14.000000 10.000000 3.000000 -1.000000 0.000000 0.000000 0 0
0 -14.000000 -6.000000 16.000000 -1.000000 0.000000 0.000000 0 0
0 -14.000000 4.000000 16.000000 -1.000000 0.000000 0.000000 0 0
phys
0 -14.000000 10.000000 3.000000 -1.000000 0.000000 0.000000 0 0
0 -14.000000 -11.000000 7.000000 -1.000000 0.000000 0.000000 0 0
0 -14.000000 -10.000000 14.000000 -1.000000 0.000000 0.000000 0 0
phys
0 -14.000000 8.000000 2.000000 -1.000000 -0.000000 -0.000000 0 0
0 -14.000000 -9.000000 2.000000 -1.000000 -0.000000 -0.000000 0 0
0 -14.000000 10.000000 3.000000 -1.000000 -0.000000 -0.000000 0 0
phys
0 -14.000000 4.000000 16.000000 -1.000000 -0.000000 -0.000000 0 0
0 -14.000000 6.000000 15.000000 -1.000000 -0.000000 -0.000000 0 0
0 -14.000000 10.000000 3.000000 -1.000000 -0.000000 -0.000000 0 0
phys
0 -14.000000 -9.000000 2.000000 -1.000000 -0.000000 -0.000000 0 0
0 -14.000000 -10.000000 3.000000 -1.000000 -0.000000 -0.000000 0 0
0 -14.000000 10.000000 3.000000 -1.000000 -0.000000 -0.000000 0 0
phys
0 -10.000000 10.000000 1.000000 -0.408248 0.408248 -0.816497 0 0
0 -11.000000 9.000000 1.000000 -0.408248 0.408248 -0.816497 0 0
0 -14.000000 10.000000 3.000000 -0.408248 0.408248 -0.816497 0 0
phys
0 -14.000000 10.000000 3.000000 -0.408248 0.408248 -0.816497 0 0
0 -11.000000 9.000000 1.000000 -0.408248 0.408248 -0.816497 0 0
0 -14.000000 8.000000 2.000000 -0.408248 0.408248 -0.816497 0 0
phys
0 10.000000 9.000000 15.000000 0.317999 0.423999 0.847998 0 0
0 14.000000 6.000000 15.000000 0.317999 0.423999 0.847998 0 0
0 14.000000 10.000000 13.000000 0.317999 0.423999 0.847998 0 0
phys
0 14.000000 10.000000 13.000000 0.317999 0.423999 0.847998 0 0
0 10.000000 11.000000 14.000000 0.317999 0.423999 0.847998 0 0
0 10.000000 9.000000 15.000000 0.317999 0.423999 0.847998 0 0
phys
0 -10.000000 12.000000 7.000000 -0.192450 0.962250 -0.192450 0 0
0 -8.000000 12.000000 5.000000 -0.192450 0.962250 -0.192450 0 0
0 -12.000000 11.000000 4.000000 -0.192450 0.962250 -0.192450 0 0
phys
0 -12.000000 11.000000 4.000000 -0.192450 0.962250 -0.192450 0 0
0 -13.000000 11.000000 5.000000 -0.192450 0.962250 -0.192450 0 0
0 -10.000000 12.000000 7.000000 -0.192450 0.962250 -0.192450 0 0
phys
0 -10.000000 10.000000 1.000000 -0.218218 0.872872 -0.436436 0 0
0 -14.000000 10.000000 3.000000 -0.218218 0.872872 -0.436436 0 0
0 -12.000000 11.000000 4.000000 -0.218218 0.872872 -0.436436 0 0
phys
0 -12.000000 11.000000 4.000000 -0.218218 0.872872 -0.436436 0 0
0 -10.000000 11.000000 3.000000 -0.218218 0.872872 -0.436436 0 0
0 -10.000000 10.000000 1.000000 -0.218218 0.872872 -0.436436 0 0
phys
0 1.000000 -5.000000 0.000000 -0.000000 -0.000000 -1.000000 0 0
0 -5.000000 -5.000000 0.000000 -0.000000 -0.000000 -1.000000 0 0
0 8.000000 0.000000 0.000000 -0.000000 -0.000000 -1.000000 0 0
phys
0 8.000000 0.000000 0.000000 -0.000000 0.000000 -1.000000 0 0
0 -5.000000 -5.000000 0.000000 -0.000000 0.000000 -1.000000 0 0
0 -8.000000 5.000000 0.000000 -0.000000 0.000000 -1.000000 0 0
phys
0 -8.000000 5.000000 0.000000 -0.000000 -0.000000 -1.000000 0 0
0 -7.000000 6.000000 0.000000 -0.000000 -0.000000 -1.000000 0 0
0 8.000000 0.000000 0.000000 -0.000000 -0.000000 -1.000000 0 0
phys
0 8.000000 0.000000 0.000000 0.000000 0.000000 -1.000000 0 0
0 -2.000000 9.000000 0.000000 0.000000 0.000000 -1.000000 0 0
0 -0.000000 9.000000 0.000000 0.000000 0.000000 -1.000000 0 0
phys
0 -0.000000 9.000000 0.000000 -0.000000 0.000000 -1.000000 0 0
0 9.000000 3.000000 0.000000 -0.000000 0.000000 -1.000000 0 0
0 8.000000 0.000000 0.000000 -0.000000 0.000000 -1.000000 0 0
phys
0 8.000000 0.000000 0.000000 0.000000 0.000000 -1.000000 0 0
0 -7.000000 6.000000 0.000000 0.000000 0.000000 -1.000000 0 0
0 -2.000000 9.000000 0.000000 0.000000 0.000000 -1.000000 0 0
phys
0 8.000000 0.000000 0.000000 0.000000 0.000000 -1.000000 0 0
0 5.000000 -4.000000 0.000000 0.000000 0.000000 -1.000000 0 0
0 1.000000 -5.000000 0.000000 0.000000 0.000000 -1.000000 0 0
phys
0 8.000000 0.000000 0.000000 0.000000 0.000000 -1.000000 0 0
0 7.000000 -2.000000 0.000000 0.000000 0.000000 -1.000000 0 0
0 5.000000 -4.000000 0.000000 0.000000 0.000000 -1.000000 0 0
end
