version 1
nodes
0 "root" -1
end
skeleton
time 0
0 0 0 0 0 0 0
end
triangles
phys
0 -30.650000 -19.799999 0.000000 -0.000000 -0.000000 -1.000000 0 0
0 -30.650000 19.799999 0.000000 -0.000000 -0.000000 -1.000000 0 0
0 30.650000 19.799999 0.000000 -0.000000 -0.000000 -1.000000 0 0
phys
0 30.650000 19.799999 0.000000 0.000000 -0.000000 -1.000000 0 0
0 30.650000 -19.799999 0.000000 0.000000 -0.000000 -1.000000 0 0
0 -30.650000 -19.799999 0.000000 0.000000 -0.000000 -1.000000 0 0
phys
0 -30.650000 -19.799999 0.000000 -0.000000 -1.000000 -0.000000 0 0
0 30.650000 -19.799999 0.000000 -0.000000 -1.000000 -0.000000 0 0
0 30.650000 -19.799999 61.300000 -0.000000 -1.000000 -0.000000 0 0
phys
0 30.650000 -19.799999 61.300000 -0.000000 -1.000000 0.000000 0 0
0 -30.650000 -19.799999 61.300000 -0.000000 -1.000000 0.000000 0 0
0 -30.650000 -19.799999 0.000000 -0.000000 -1.000000 0.000000 0 0
phys
0 30.650000 -19.799999 0.000000 1.000000 -0.000000 -0.000000 0 0
0 30.650000 19.799999 0.000000 1.000000 -0.000000 -0.000000 0 0
0 30.650000 -19.799999 61.300000 1.000000 -0.000000 -0.000000 0 0
phys
0 30.650000 -19.799999 61.300000 1.000000 -0.000000 0.000000 0 0
0 30.650000 19.799999 0.000000 1.000000 -0.000000 0.000000 0 0
0 30.650000 19.799999 61.300000 1.000000 -0.000000 0.000000 0 0
phys
0 -30.650000 19.799999 61.300000 -1.000000 0.000000 -0.000000 0 0
0 -30.650000 19.799999 0.000000 -1.000000 0.000000 -0.000000 0 0
0 -30.650000 -19.799999 0.000000 -1.000000 0.000000 -0.000000 0 0
phys
0 -30.650000 -19.799999 0.000000 -1.000000 -0.000000 -0.000000 0 0
0 -30.650000 -19.799999 61.300000 -1.000000 -0.000000 -0.000000 0 0
0 -30.650000 19.799999 61.300000 -1.000000 -0.000000 -0.000000 0 0
phys
0 -30.650000 19.799999 61.300000 0.000000 1.000000 0.000000 0 0
0 30.650000 19.799999 0.000000 0.000000 1.000000 0.000000 0 0
0 -30.650000 19.799999 0.000000 0.000000 1.000000 0.000000 0 0
phys
0 30.650000 19.799999 61.300000 -0.000000 1.000000 -0.000000 0 0
0 30.650000 19.799999 0.000000 -0.000000 1.000000 -0.000000 0 0
0 -30.650000 19.799999 61.300000 -0.000000 1.000000 -0.000000 0 0
phys
0 -30.650000 -19.799999 61.300000 -0.000000 -0.000000 1.000000 0 0
0 30.650000 -19.799999 61.300000 -0.000000 -0.000000 1.000000 0 0
0 -30.650000 19.799999 61.300000 -0.000000 -0.000000 1.000000 0 0
phys
0 -30.650000 19.799999 61.300000 -0.000000 0.000000 1.000000 0 0
0 30.650000 -19.799999 61.300000 -0.000000 0.000000 1.000000 0 0
0 30.650000 19.799999 61.300000 -0.000000 0.000000 1.000000 0 0
end
